<svg width="14" height="22" viewBox="0 0 14 22" fill="none" xmlns="http://www.w3.org/2000/svg">
<path d="M1 6.91012V15.0001C1 16.5914 1.63214 18.1175 2.75736 19.2428C3.88258 20.368 5.4087 21.0001 7 21.0001C8.5913 21.0001 10.1174 20.368 11.2426 19.2428C12.3679 18.1175 13 16.5914 13 15.0001V5.00012C13 3.93926 12.5786 2.92184 11.8284 2.17169C11.0783 1.42155 10.0609 1.00012 9 1.00012C7.93913 1.00012 6.92172 1.42155 6.17157 2.17169C5.42143 2.92184 5 3.93926 5 5.00012V14.1821C5 14.4448 5.05173 14.7048 5.15224 14.9475C5.25275 15.1901 5.40007 15.4106 5.58579 15.5963C5.7715 15.7821 5.99198 15.9294 6.23463 16.0299C6.47728 16.1304 6.73736 16.1821 7 16.1821V16.1821C7.53043 16.1821 8.03914 15.9714 8.41421 15.5963C8.78929 15.2213 9 14.7126 9 14.1821V7.00012" stroke="#FA003C" stroke-width="2" stroke-linecap="round" stroke-linejoin="round"/>
</svg>
