<svg width="160" height="52" fill="none" xmlns="http://www.w3.org/2000/svg"><path d="M33.583 13.986c.022-1.268 0-4.182 0-4.182h-2.288v2.41h-2.126v-2.41h-2.284v2.405h-2.28V9.796h-2.292v2.402h-2.22V9.796h-2.258v4.288c.016.157.09.302.207.407.429.395.865.783 1.324 1.148.156.187.254.414.283.655v2.884l-6.56-6.562L25.704 0l12.613 12.616-6.558 6.562V16.26c.02-.216.109-.42.252-.583.451-.377.9-.753 1.317-1.148a.862.862 0 00.256-.543zM49.053 29.501l2.386-3.764-9.31-9.318.02-3.2c-.851.304-2.977 1.065-4.606 2.556L26.559 26.772v25.224l18.55-18.538c-.41-3.621-9.365-6.434-7.104-11.418-.436 5.154 5.615 5.85 8.881 5.123a4.981 4.981 0 01-1.027.697c1 .56 2.197 1.043 3.194 1.641zm-18.705 7.963s-2.228-12.868 8.365-19.031c-.203.226-6.789 7.608-8.365 19.031zm11.04-18.222c1.622 0 2.582.813 2.766 1.973-2.48-.486-1.67-1.103-2.766-1.973z" fill="#FA003C"/><path d="M42.512 16.223l.026-1.273 1.25-.666-.395 2.824-.881-.885zM2.39 29.501L0 25.737l9.313-9.315-.019-3.2c.847.305 2.973 1.066 4.606 2.557l10.984 10.997V52L6.333 33.458c.41-3.621 9.362-6.434 7.1-11.418.437 5.154-5.614 5.85-8.876 5.123.311.275.657.51 1.027.697-1 .56-2.197 1.043-3.195 1.641zm18.705 7.963s2.224-12.868-8.369-19.031c.207.226 6.792 7.608 8.369 19.031zm-11.04-18.222c-1.622 0-2.582.813-2.766 1.973 2.48-.486 1.667-1.103 2.766-1.973z" fill="#FA003C"/><path d="M8.929 16.223l-.027-1.273-1.25-.666.396 2.824.88-.885z" fill="#FA003C"/><path d="M69.35 36.564a11.066 11.066 0 01-3.88-.64 5.414 5.414 0 01-2.596-1.837v2.044h-2.886v-7.055h2.992v.377a3.28 3.28 0 00.68 2.055 4.49 4.49 0 001.882 1.39c.87.348 1.8.52 2.736.504 1.325 0 2.36-.231 3.104-.693a2.198 2.198 0 001.13-1.977 2.342 2.342 0 00-1.005-2.04c-.674-.474-1.863-.862-3.568-1.175l-1.505-.27c-4.119-.754-6.178-2.823-6.178-6.209a5.57 5.57 0 01.91-3.162 6.138 6.138 0 012.506-2.124 9.069 9.069 0 017.01-.109c.89.365 1.662.968 2.232 1.743v-1.961h2.86v6.946h-3.01v-.298a3.524 3.524 0 00-1.269-2.82 4.89 4.89 0 00-3.28-1.076 4.8 4.8 0 00-2.816.723 2.258 2.258 0 00-1.023 1.946 2.402 2.402 0 00.956 1.962c.632.502 1.775.892 3.428 1.17l1.335.219c2.258.364 3.909 1.058 4.953 2.082 1.043 1.024 1.561 2.404 1.554 4.141a5.875 5.875 0 01-.888 3.253 5.702 5.702 0 01-2.518 2.123 9.104 9.104 0 01-3.846.768zM89.307 18.452h-2.205v14.656h2.205v3.012h-8.358v-3.012h2.205V18.452H80.95V15.44h8.358v3.012zM110.785 21.584h-3.142v-3.132h-7.311v5.831h7.24v2.94h-7.24v5.885h7.311v-3.106h3.158v6.13H94.18V33.12h2.205V18.452H94.18V15.44h16.605v6.144zM137.37 15.428v3.012h-2.22v17.695h-4.03l-9.855-15.1v12.092h2.777v3.012h-8.441v-3.012h2.202V18.452h-2.205V15.44h6.235l9.829 14.98V18.452h-2.777V15.44l8.485-.012zM138.199 36.131V33.12h1.852l6.588-17.694h4.764l6.642 17.694h1.825v3.012h-8.602v-2.944h2.694l-1.279-3.595h-7.677l-1.309 3.595h2.589v2.944h-8.087zm7.733-9.209h5.769l-2.856-7.95-2.913 7.95zM60.031 48.408v-8.384h2.006c.485-.012.967.083 1.411.279.375.173.69.454.907.805.218.378.327.808.316 1.243.016.443-.088.883-.301 1.272a2.21 2.21 0 01-.907.855 2.983 2.983 0 01-1.411.312h-1.453v3.633l-.568-.015zm.553-4.118h1.351c.402.01.801-.073 1.167-.241.31-.152.57-.388.752-.682.181-.304.273-.654.264-1.009a1.827 1.827 0 00-.264-.997 1.723 1.723 0 00-.752-.652 2.722 2.722 0 00-1.167-.23h-1.35v3.81zM70.948 48.57a2.502 2.502 0 01-1.324-.357c-.39-.241-.71-.58-.93-.983a2.908 2.908 0 01-.342-1.423c-.01-.497.107-.988.339-1.427.217-.403.538-.74.93-.979.397-.249.858-.38 1.328-.376.472-.002.936.129 1.34.376.392.234.704.582.895.998v-1.194h.538v5.203h-.538v-1.204a2.515 2.515 0 01-.918 1.001 2.434 2.434 0 01-1.318.365zm.11-.478c.396.01.787-.092 1.128-.293.322-.195.582-.475.753-.81a2.662 2.662 0 000-2.372 2.063 2.063 0 00-.752-.805 2.257 2.257 0 00-2.232 0c-.319.195-.579.474-.752.805a2.662 2.662 0 000 2.372c.173.333.433.613.752.81.334.197.715.298 1.103.293zM80.316 48.408v-5.203h.538V44c.135-.29.35-.535.621-.704.277-.164.594-.246.915-.237a2.23 2.23 0 01.82.158l-.218.46a1.455 1.455 0 00-.335-.11 2.01 2.01 0 00-.376-.034 1.38 1.38 0 00-.7.192c-.216.12-.401.287-.542.49a1.13 1.13 0 00-.207.643v3.57l-.516-.02zM90.2 48.57a1.001 1.001 0 01-.832-.376 1.627 1.627 0 01-.293-1.04v-3.53h-.493v-.407h.493v-1.943h.538v1.943h1.332v.406h-1.332v3.532c-.016.249.047.497.18.708a.58.58 0 00.509.244.876.876 0 00.541-.17l.14.43a1.298 1.298 0 01-.377.154c-.132.035-.269.052-.406.05zM96.988 48.408v-5.203h.538v.753c.151-.267.372-.489.64-.64a2.129 2.129 0 011.129-.267c.36-.01.718.075 1.035.249.29.164.522.416.662.719.161.366.24.763.23 1.163v3.238h-.539v-3.14a1.962 1.962 0 00-.398-1.322 1.433 1.433 0 00-1.13-.451 1.745 1.745 0 00-.868.203 1.42 1.42 0 00-.75 1.239v3.47l-.549-.01zM110.128 48.57a2.854 2.854 0 01-1.453-.376 2.659 2.659 0 01-1.354-2.368c-.003-.377.068-.75.21-1.1a2.745 2.745 0 011.449-1.483 2.562 2.562 0 011.043-.215 2.634 2.634 0 012.291 1.273c.248.41.386.877.399 1.355v.09a.626.626 0 010 .087h-4.865c-.009.41.093.815.297 1.171.192.338.473.617.813.806.362.2.771.3 1.185.293.399.006.793-.087 1.148-.27a2.19 2.19 0 00.824-.753l.406.225a2.547 2.547 0 01-.997.93c-.43.226-.91.341-1.396.335zm-2.258-3.15h4.301a2.135 2.135 0 00-.376-.987 2.167 2.167 0 00-.753-.682 2.073 2.073 0 00-1.016-.252 2.146 2.146 0 00-2.16 1.92h.004zM118.836 48.408v-5.203h.538V44c.135-.29.35-.535.621-.704.276-.164.593-.246.914-.237a2.23 2.23 0 01.821.158l-.219.46a1.385 1.385 0 00-.335-.11 2.01 2.01 0 00-.376-.034c-.246 0-.488.067-.7.192-.215.12-.401.287-.542.49a1.133 1.133 0 00-.207.643v3.57l-.515-.02zM128.788 48.57a1.917 1.917 0 01-1.129-.339 2.096 2.096 0 01-.753-.956l.324-.27c.129.33.346.62.628.835.262.196.58.301.907.297.226.003.449-.049.651-.15a1.13 1.13 0 00.655-1.077.802.802 0 00-.158-.53 1.236 1.236 0 00-.463-.328 8.982 8.982 0 00-.753-.305 7.85 7.85 0 01-.651-.298 1.668 1.668 0 01-.523-.421 1.016 1.016 0 01-.207-.655 1.19 1.19 0 01.204-.682c.138-.205.329-.369.553-.474.247-.12.519-.181.794-.177.286-.002.569.07.82.207.254.142.472.342.636.583l-.294.29a1.304 1.304 0 00-1.162-.662 1.13 1.13 0 00-.753.248.81.81 0 00-.29.648.662.662 0 00.166.463c.125.13.274.236.44.309.181.082.377.169.602.252.316.12.591.237.824.35.212.102.397.253.538.44.136.218.202.471.189.727a1.63 1.63 0 01-.237.885c-.156.252-.38.455-.648.583a2.072 2.072 0 01-.91.207zM136.781 48.408v-8.753h.538v4.292c.15-.268.37-.49.636-.64.345-.19.736-.283 1.129-.267.361-.01.718.075 1.035.248.28.167.502.415.636.712.163.365.241.763.229 1.163v3.238h-.538v-3.14a1.946 1.946 0 00-.399-1.321 1.415 1.415 0 00-1.128-.46 1.711 1.711 0 00-.87.207c-.229.126-.42.31-.553.535a1.397 1.397 0 00-.192.708v3.47l-.523.008zM147.763 42.174a.377.377 0 01-.324-.188.377.377 0 01.136-.516.374.374 0 01.188-.05.376.376 0 01.328.185.386.386 0 010 .38.38.38 0 01-.328.189zm-.267 6.234v-5.203h.538v5.203h-.538zM154.629 51.051v-7.846h.538v1.171c.201-.408.514-.75.903-.986a2.475 2.475 0 011.317-.377c.473-.003.938.127 1.34.377.392.238.713.578.929.983a3.114 3.114 0 010 2.838 2.568 2.568 0 01-.925.987c-.4.248-.862.379-1.333.376a2.473 2.473 0 01-2.231-1.366v3.847l-.538-.004zm2.668-2.959c.39.007.774-.095 1.11-.294.32-.196.58-.476.752-.809a2.685 2.685 0 000-2.368 2.052 2.052 0 00-.752-.81 2.137 2.137 0 00-3.01.806 2.653 2.653 0 000 2.372c.172.333.432.613.752.81.351.208.755.31 1.163.293h-.015z" fill="#190D41"/></svg>