<svg width="34" height="28" fill="none" xmlns="http://www.w3.org/2000/svg"><path d="M3.151 4.487C5.49 1.952 9.028.667 13.666.667h1.667v4.698l-1.34.268c-2.284.457-3.872 1.355-4.722 2.674a4.837 4.837 0 00-.73 2.36h5.125a1.667 1.667 0 011.667 1.666V24a3.337 3.337 0 01-3.334 3.333H2a1.667 1.667 0 01-1.666-1.666v-8.334l.005-4.865C.323 12.283.006 7.9 3.15 4.487zm27.182 22.846h-10a1.667 1.667 0 01-1.667-1.666v-8.334l.005-4.865c-.015-.185-.332-4.568 2.813-7.981C23.823 1.952 27.361.667 32 .667h1.667v4.698l-1.34.268c-2.283.457-3.872 1.355-4.722 2.674a4.837 4.837 0 00-.73 2.36H32a1.667 1.667 0 011.667 1.666V24a3.337 3.337 0 01-3.333 3.333z" fill="#191041"/></svg>