<svg width="52" height="52" fill="none" xmlns="http://www.w3.org/2000/svg"><path d="M33.868 13.986c.023-1.268 0-4.182 0-4.182H31.58v2.41h-2.126v-2.41H27.17v2.405h-2.28V9.796h-2.292v2.402h-2.22V9.796H18.12v4.288c.016.157.09.302.207.407.429.395.865.783 1.325 1.148.155.187.253.414.282.655v2.884l-6.559-6.562L25.988 0l12.614 12.616-6.56 6.562V16.26c.022-.216.11-.42.253-.583.452-.377.9-.753 1.317-1.148a.862.862 0 00.256-.543zM49.335 29.501l2.385-3.764-9.31-9.318.02-3.2c-.85.305-2.977 1.065-4.606 2.556L26.84 26.772v25.224L45.39 33.458c-.41-3.621-9.366-6.434-7.104-11.418-.437 5.154 5.614 5.85 8.88 5.123a4.981 4.981 0 01-1.027.697c1 .56 2.197 1.043 3.195 1.641zm-18.706 7.963s-2.228-12.868 8.365-19.031c-.203.226-6.788 7.609-8.365 19.031zm11.04-18.222c1.622 0 2.582.813 2.766 1.973-2.48-.486-1.67-1.103-2.765-1.973z" fill="#191041"/><path d="M42.797 16.223l.026-1.273 1.25-.666-.395 2.824-.881-.885zM2.67 29.502L.282 25.736l9.313-9.315-.018-3.2c.846.305 2.972 1.066 4.605 2.557l10.985 10.997V52L6.614 33.458c.41-3.621 9.362-6.434 7.1-11.418.437 5.154-5.613 5.85-8.876 5.123a4.89 4.89 0 001.027.697c-1 .561-2.197 1.043-3.194 1.642zm18.706 7.962s2.224-12.868-8.369-19.031c.207.226 6.793 7.609 8.37 19.031zm-11.04-18.222c-1.622 0-2.582.813-2.766 1.973 2.48-.486 1.667-1.103 2.766-1.973z" fill="#191041"/><path d="M9.214 16.223l-.027-1.273-1.25-.666.396 2.824.88-.885z" fill="#191041"/></svg>